<svg
  xmlns="http://www.w3.org/2000/svg"
  xmlns:xlink="http://www.w3.org/1999/xlink"
>
  <defs>
    <symbol id="search">
      <path
        fill="#bcbccb"
        d="M12.7,11.23a6.777,6.777,0,0,0,1.4-4.174A7.02,7.02,0,0,0,7.1,0,7.105,7.105,0,0,0,0,7.056a7.105,7.105,0,0,0,7.1,7.056,6.667,6.667,0,0,0,4.2-1.391l3,2.981a.971.971,0,0,0,1.4,0,.957.957,0,0,0,0-1.391Zm-5.6.8A5.022,5.022,0,0,1,2,7.056a5.1,5.1,0,0,1,10.2,0A5.022,5.022,0,0,1,7.1,12.025Z"
      />
    </symbol>

    <symbol id="ball">
      <path 
        fill="#bcbccb" 
        d="M8,0a8,8,0,1,0,8,8A8.024,8.024,0,0,0,8,0ZM8,10a2,2,0,1,1,2-2A2.006,2.006,0,0,1,8,10ZM8,2a5.834,5.834,0,0,1,2.6.6L9.044,4.156a3.591,3.591,0,0,0-2.089,0L5.4,2.6A5.834,5.834,0,0,1,8,2ZM2,8a5.834,5.834,0,0,1,.6-2.6L4.156,6.956a3.591,3.591,0,0,0,0,2.089L2.6,10.6A5.834,5.834,0,0,1,2,8Zm6,6a5.834,5.834,0,0,1-2.6-.6l1.556-1.556a3.591,3.591,0,0,0,2.089,0L10.6,13.4A5.834,5.834,0,0,1,8,14Zm5.4-3.4L11.844,9.044a3.591,3.591,0,0,0,0-2.089L13.4,5.4a5.933,5.933,0,0,1,0,5.2Z"
      />
    </symbol>

    <symbol width="16" height="16" viewBox="0 0 16 16" id="bell">
      <g>
        <rect fill="none" id="canvas_background" height="18" width="18" y="-1" x="-1"/>
      </g>
      <g>
        <path stroke="null" fill="#bcbccb" id="svg_1" d="m9.366048,12.919002l-2.82768,0c-0.565536,0 -1.050281,0.460384 -0.727118,0.86322c0.484745,0.517932 1.292654,0.86322 2.181353,0.86322s1.696608,-0.345288 2.100562,-0.86322c0.323163,-0.402836 -0.080791,-0.86322 -0.727118,-0.86322z"/>
        <path stroke="null" fill="#bcbccb" id="svg_2" d="m14.260057,10.978259l-0.257223,-0.304179c-1.028892,-1.277553 -1.543338,-2.798449 -1.543338,-4.380181l0,-0.425851c0,-2.190091 -1.67195,-4.136838 -3.986958,-4.380181c-2.700842,-0.304179 -5.01585,1.703404 -5.01585,4.197674l0,0.608359c0,1.581732 -0.514446,3.102628 -1.543338,4.380181l-0.257223,0.304179c-0.128612,0.121672 -0.192917,0.365015 -0.128612,0.486687c0.192917,0.547523 0.707363,0.912538 1.286115,0.912538l10.288923,0c0.578752,0 1.093198,-0.365015 1.22181,-0.912538c0.064306,-0.182508 0,-0.365015 -0.064306,-0.486687z"/>
      </g>
    </symbol>

    <symbol id="message">
       <g>
        <rect fill="none" id="canvas_background" height="18" width="18" y="-1" x="-1"/>
      </g>
      <g>
        <path stroke="null" fill="#bcbccb" id="svg_1" d="m8.07696,1.477777c-4.206894,0 -7.615632,2.658505 -7.615632,5.939517c0,1.360092 0.592357,2.605678 1.574164,3.603688c-0.442706,1.127937 -1.364712,2.081116 -1.379588,2.091681c-0.197105,0.199888 -0.249171,0.49258 -0.137602,0.74244c0.115312,0.249859 0.370046,0.415481 0.656258,0.415481c1.829731,0 3.245913,-0.735301 4.138465,-1.320686c0.833049,0.258426 1.791054,0.406914 2.763935,0.406914c4.206894,0 7.589665,-2.659362 7.589665,-5.939517s-3.382771,-5.939517 -7.589665,-5.939517zm1.252682,7.935003c-0.795859,0 -1.580412,-0.117791 -2.33194,-0.346091l-1.903836,2.391725l-0.580159,0.436253c4.188591,-0.190801 8.01262,-1.286804 7.309885,-1.069212c0.219419,-0.346091 -7.366092,-1.476782 -7.20216,-1.890835l-0.956465,1.738467l-0.514961,-0.853818c-3.744069,5.614373 11.919402,-1.742144 11.919402,-2.94718c0,-2.520012 -7.155138,-0.425291 -3.741127,-0.425291s2.939122,-1.549515 2.939122,0.970497s-13.806884,-6.853289 -6.164744,4.590668z"/>
      </g>
    </symbol>

    <symbol width="11" height="7" viewBox="0 0 11 7" id="arrow-down">
      <path 
        fill="#a4afb7" 
        d="M8.1,11.6,2.6,6.041,4.026,4.6,8.1,8.718,12.174,4.6,13.6,6.041Z" transform="translate(-2.6 -4.6)"
      />
    </symbol>

    <symbol width="16" height="16" viewBox="0 0 16 16" id="home">
      <path fill="#a5a4bf" class="a" d="M15.581,5.186l-7-5a1,1,0,0,0-1.162,0l-7,5A1,1,0,0,0,1.581,6.814L2,6.515V15a1,1,0,0,0,1,1H13a1,1,0,0,0,1-1V6.515A1.7,1.7,0,0,0,15,7a1,1,0,0,0,.582-1.814ZM12,14H10V11a2,2,0,0,0-4,0v3H4V5.086L8,2.229l4,2.857Z" transform="translate(0)"/>
    </symbol>

     <symbol width="16" height="16" viewBox="0 0 16 16" id="inbox">
      <path fill="#a5a4bf" d="M15,1H1A1,1,0,0,0,0,2V14a1,1,0,0,0,1,1H15a1,1,0,0,0,1-1V2A1,1,0,0,0,15,1ZM14,13H2V6.723L7.5,9.868a1,1,0,0,0,.992,0L14,6.723Zm0-8.58L8,7.849,2,4.42V3H14Z" transform="translate(0 -1)"/>
    </symbol>

    <symbol width="16" height="16" viewBox="0 0 16 16" id="invoices">
      <path fill="#a5a4bf" class="a" d="M14,0H2A.945.945,0,0,0,1,1V16l3-2,2,2,2-2,2,2,2-2,3,2V1A.945.945,0,0,0,14,0ZM12,10H4V8h8Zm0-4H4V4h8Z" transform="translate(-1)"/>
    </symbol>

    <symbol width="16" height="16" viewBox="0 0 16 16" id="help-center">
      <path fill="#a5a4bf" d="M8,0a8,8,0,1,0,8,8A8.024,8.024,0,0,0,8,0ZM8,10a2,2,0,1,1,2-2A2.006,2.006,0,0,1,8,10ZM8,2a5.834,5.834,0,0,1,2.6.6L9.044,4.156a3.591,3.591,0,0,0-2.089,0L5.4,2.6A5.834,5.834,0,0,1,8,2ZM2,8a5.834,5.834,0,0,1,.6-2.6L4.156,6.956a3.591,3.591,0,0,0,0,2.089L2.6,10.6A5.834,5.834,0,0,1,2,8Zm6,6a5.834,5.834,0,0,1-2.6-.6l1.556-1.556a3.591,3.591,0,0,0,2.089,0L10.6,13.4A5.834,5.834,0,0,1,8,14Zm5.4-3.4L11.844,9.044a3.591,3.591,0,0,0,0-2.089L13.4,5.4a5.933,5.933,0,0,1,0,5.2Z"/>
    </symbol>

    <symbol width="16" height="16" viewBox="0 0 16 16" id="settings">
      <path fill="#a5a4bf" d="M13.3,5.2l1.1-2.1L13,1.7,10.9,2.8a3.582,3.582,0,0,0-1.1-.4L9,0H7L6.2,2.3a4.179,4.179,0,0,0-1,.4L3.1,1.6,1.6,3.1,2.7,5.2a4.179,4.179,0,0,0-.4,1L0,7V9l2.3.8c.1.4.3.7.4,1.1L1.6,13,3,14.4l2.1-1.1a3.582,3.582,0,0,0,1.1.4L7,16H9l.8-2.3c.4-.1.7-.3,1.1-.4L13,14.4,14.4,13l-1.1-2.1a3.582,3.582,0,0,0,.4-1.1L16,9V7l-2.3-.8A4.179,4.179,0,0,0,13.3,5.2ZM8,11A2.946,2.946,0,0,1,5,8,2.946,2.946,0,0,1,8,5a2.946,2.946,0,0,1,3,3A2.946,2.946,0,0,1,8,11Z"/>
    </symbol>
    
     <symbol width="16" height="16" viewBox="0 0 16 16" id="dashboard">
      <g>
        <rect fill="none" id="canvas_background" height="18" width="18" y="-1" x="-1"/>
      </g>
      <g>
        <path stroke="null" id="chart1" fill="#a5a4bf" d="m2.694944,7.362095c-0.462009,0 -0.837313,0.369594 -0.837313,0.825399l0,5.774492c0,0.455805 0.375304,0.825399 0.837313,0.825399l1.675464,0c0.462847,0 0.838151,-0.369594 0.838151,-0.825399l0,-5.774492c0,-0.455805 -0.375304,-0.825399 -0.838151,-0.825399l-1.675464,0zm4.607944,-6.599891c-0.462847,0 -0.838151,0.369594 -0.838151,0.825399l0,12.374384c0,0.455805 0.375304,0.825399 0.838151,0.825399l1.675045,0c0.462428,0 0.837732,-0.369594 0.837732,-0.825399l0,-12.374384c0,-0.455805 -0.375304,-0.825399 -0.837732,-0.825399l-1.675045,0zm4.607525,3.299946c-0.462847,0 -0.838151,0.369594 -0.838151,0.825399l0,9.074438c0,0.455805 0.375304,0.825399 0.838151,0.825399l1.675464,0c0.462009,0 0.837313,-0.369594 0.837313,-0.825399l0,-9.074438c0,-0.455805 -0.375304,-0.825399 -0.837313,-0.825399l-1.675464,0z"/>
      </g>
    </symbol>

    <symbol width="16" height="16" viewBox="0 0 16 16" id="customers">
     <g>
      <rect fill="none" id="canvas_background" height="18" width="18" y="-1" x="-1"/>
    </g>
    <g>
      <path stroke="null" fill="#a5a4bf" id="svg_1" d="m7.921392,8.272283a3.98234,3.947251 0 1 0 -3.98234,-3.947251a3.98234,3.947251 0 0 0 3.98234,3.947251zm0,-6.766716a2.844529,2.819465 0 1 1 -2.844529,2.819465a2.844529,2.819465 0 0 1 2.844529,-2.819465z"/>
      <path stroke="null" transform="rotate(-0.248342826962471 8.237192153930245,12.131772041320904) " fill="#a5a4bf" id="svg_2" d="m8.794569,9.126439l-1.114753,0a6.131144,5.509778 0 0 0 -6.131144,5.509778a0.557377,0.500889 0 0 0 0.557377,0.500889l12.262287,0a0.557377,0.500889 0 0 0 0.557377,-0.500889a6.131144,5.509778 0 0 0 -6.131144,-5.509778zm-6.097701,5.008889a5.01639,4.508 0 0 1 4.982948,-4.007112l1.114753,0a5.01639,4.508 0 0 1 4.982948,4.007112l-11.080648,0z"/>
    </g>
    </symbol>

    <symbol width="16" height="16" viewBox="0 0 16 16" id="chat-room">
      <g>
        <rect fill="none" id="canvas_background" height="18" width="18" y="-1" x="-1"/>
      </g>
      <g>
        <polygon stroke="null" fill="#a5a4bf" id="svg_2" points="4.139004230499268,13.371612548828125 11.16721773147583,13.371612548828125 11.16721773147583,12.473312377929688 3.825819492340088,12.473312377929688 2.5086060762405396,14.157630920410156 2.5086060762405396,4.1639862060546875 1.7717033624649048,4.1639862060546875 1.7717033624649048,15.617377281188965 2.3888596296310425,15.617377281188965 "/>
        <path stroke="null" fill="#a5a4bf" id="svg_3" d="m3.508041,11.130325l8.096953,0l2.042107,2.236246l0.684106,0l0,-11.852104l-10.823166,0l0,9.615858zm0.816843,-8.721359l9.18948,0l0,9.537589l-1.562212,-1.710728l-7.627269,0l0,-7.826861z"/>
        <rect stroke="null" fill="#a5a4bf" id="svg_5" y="4.498394" x="5.643091" width="6.295828" height="1.311898"/>
        <rect stroke="null" fill="#a5a4bf" id="svg_8" y="6.813507" x="5.643091" width="6.295828" height="1.311898"/>
      </g>
    </symbol>

    <symbol width="16" height="16" viewBox="0 0 16 16" id="calendar">
      <g>
        <rect fill="none" id="canvas_background" height="18" width="18" y="-1" x="-1"/>
      </g>
      <g>
        <path stroke="null" fill="#a5a4bf" id="svg_1" fill-rule="evenodd" d="m13.742015,5.226629l0,-1.947456l-1.43196,0l0,0.649152l-1.43196,0l0,-0.649152l-5.727841,0l0,0.649152l-1.43196,0l0,-0.649152l-1.43196,0l0,1.947456l11.455682,0zm0,1.298304l-11.455682,0l0,6.491519l11.455682,0l0,-6.491519zm-1.43196,-4.544063l1.43196,0c0.79085,0 1.43196,0.58127 1.43196,1.298304l0,9.737278c0,0.717034 -0.64111,1.298304 -1.43196,1.298304l-11.455682,0c-0.79085,0 -1.43196,-0.58127 -1.43196,-1.298304l0,-9.737278c0,-0.717034 0.64111,-1.298304 1.43196,-1.298304l1.43196,0l0,-0.649152l1.43196,0l0,0.649152l5.727841,0l0,-0.649152l1.43196,0l0,0.649152zm-6.443821,7.140671l-1.43196,0l0,-1.298304l1.43196,0l0,1.298304zm2.86392,0l-1.43196,0l0,-1.298304l1.43196,0l0,1.298304zm2.86392,0l-1.43196,0l0,-1.298304l1.43196,0l0,1.298304zm-5.727841,2.596607l-1.43196,0l0,-1.298304l1.43196,0l0,1.298304zm2.86392,0l-1.43196,0l0,-1.298304l1.43196,0l0,1.298304z"/>
      </g>
    </symbol>

    <symbol width="16" height="16" viewBox="0 0 16 16" id="products">
      <g>
        <rect fill="none" id="canvas_background" height="18" width="18" y="-1" x="-1"/>
      </g>
      <g>
        <rect stroke="null" fill="#a5a4bf" id="svg_2" y="11.067749" x="3.36987" width="6.012944" height="0.971082"/>
        <path stroke="null" fill="#a5a4bf" id="svg_3" d="m13.781602,1.427706l-11.640043,0a1.165459,1.101072 0 0 0 -1.164004,1.099697l0,10.99697a1.165459,1.101072 0 0 0 1.164004,1.099697l11.640043,0a1.165459,1.101072 0 0 0 1.164004,-1.099697l0,-10.99697a1.165459,1.101072 0 0 0 -1.164004,-1.099697zm-4.656017,1.099697l0,2.199394l-2.328009,0l0,-2.199394l2.328009,0zm-6.984026,10.99697l0,-10.99697l3.492013,0l0,3.299091l4.656017,0l0,-3.299091l3.492013,0l0.000698,10.99697l-11.640742,0z"/>
        <rect stroke="null" fill="#a5a4bf" id="svg_4" y="9.074221" x="3.36987" width="3.633572" height="0.971082"/>
      </g>
    </symbol>

    <symbol width="11" height="11" viewBox="0 0 11 11" id="triangle">
       <g>
        <rect fill="none" id="canvas_background" height="13" width="13" y="-1" x="-1"/>
      </g>
      <g>
        <polygon stroke="null" transform="rotate(-89.90054321289062 5.5223021507263175,7.6201133728027335) " fill="#43425d" id="svg_1" points="2.1162170860916376,2.4543163776397705 2.1162170860916376,12.785909652709961 8.928389022126794,7.620112895965576 "/>
      </g>
    </symbol>

    <symbol width="20" height="20" viewBox="0 0 20 20" id="close-btn">
       <g>
        <rect fill="none" id="canvas_background" height="22" width="22" y="-1" x="-1"/>
      </g>
      <g>
        <path stroke="null" fill="#d6d6d6" id="svg_3" d="m9.895139,18.900115c-4.952311,0 -8.966705,-3.99726 -8.966705,-8.928435s4.014394,-8.928435 8.966705,-8.928435s8.966705,3.99726 8.966705,8.928435s-4.014394,8.928435 -8.966705,8.928435zm0,-1.785687a7.173364,7.142748 0 1 0 0,-14.285496a7.173364,7.142748 0 0 0 0,14.285496zm0,-8.405229l2.535784,-2.525854l1.268789,1.263374l-2.536681,2.524961l2.536681,2.524961l-1.268789,1.263374l-2.535784,-2.525854l-2.535784,2.525854l-1.268789,-1.263374l2.536681,-2.524961l-2.536681,-2.524961l1.268789,-1.263374l2.535784,2.525854z"/>
      </g>
    </symbol>
  </defs>
</svg>
